<?xml version="1.0" encoding="UTF-8" standalone="no"?>
<!DOCTYPE svg PUBLIC "-//W3C//DTD SVG 20010904//EN"
              "http://www.w3.org/TR/2001/REC-SVG-20010904/DTD/svg10.dtd">

<svg xmlns="http://www.w3.org/2000/svg"
     width="8.88889in" height="6.47222in"
     viewBox="0 0 640 466">
  <path id="Unnamed"
        fill="none" stroke="black" stroke-width="1"
        d="M 300.00,407.00
           C 300.00,407.00 288.67,403.00 287.00,399.67
             285.33,396.33 255.33,401.67 255.00,401.67
             254.67,401.67 238.00,397.00 238.00,391.67
             238.00,386.33 248.00,374.00 254.00,364.67
             256.00,353.00 258.33,330.00 254.67,322.00
             252.67,339.00 248.67,337.00 248.67,337.00
             248.67,337.00 247.33,327.00 247.33,327.00
             247.33,327.00 243.00,340.33 243.33,340.33
             243.67,340.33 239.00,334.67 239.00,334.67
             239.00,334.67 239.67,343.33 239.67,343.33
             239.67,343.33 234.00,338.67 234.00,338.67
             234.00,338.67 234.67,342.00 234.67,342.00
             234.67,342.00 201.33,393.33 201.33,393.33
             201.33,393.33 176.67,403.67 176.67,403.67
             176.67,403.67 157.67,397.33 157.67,397.33
             157.67,397.33 152.67,404.00 152.67,404.00
             152.67,404.00 172.33,405.00 172.33,405.00
             172.33,405.00 167.67,409.33 167.67,409.33
             167.67,409.33 190.00,405.00 190.00,405.00
             190.00,405.00 215.00,413.67 239.00,407.33
             250.00,408.00 262.00,404.33 265.67,404.00
             269.33,403.67 302.67,408.00 302.67,408.00" />
</svg>
